<svg width="512pt" height="512pt" viewBox="0 0 512 512" version="1.1" xmlns="http://www.w3.org/2000/svg">
<g>
<path fill="#ddf3d5" opacity="1.00" d=" M 250.48 16.63 C 258.23 14.86 266.25 17.28 272.95 21.19 C 282.85 26.98 291.29 34.88 300.97 41.01 C 305.83 44.06 311.23 46.46 316.99 47.07 C 333.35 48.91 349.52 42.73 365.88 44.81 C 373.77 45.67 380.86 50.35 385.25 56.88 C 393.09 68.23 396.39 81.92 403.19 93.83 C 405.57 97.95 408.48 101.83 412.24 104.77 C 426.53 115.96 446.18 117.91 459.56 130.47 C 468.05 138.48 468.41 151.12 467.11 161.95 C 466.05 175.51 462.04 189.66 466.86 202.93 C 473.29 218.56 487.37 229.57 493.77 245.22 C 496.75 252.27 496.59 260.44 493.50 267.42 C 487.23 281.99 474.58 292.60 467.78 306.86 C 462.68 317.74 464.81 330.06 466.15 341.53 C 467.31 352.02 469.27 363.17 465.19 373.30 C 461.24 382.69 451.82 387.99 442.95 391.95 C 431.04 397.65 417.30 401.06 408.13 411.14 C 396.89 424.59 394.62 443.12 383.89 456.89 C 379.58 462.55 373.00 466.35 365.92 467.18 C 348.76 469.40 331.72 462.38 314.58 465.29 C 301.26 468.08 291.53 478.33 280.66 485.73 C 271.94 492.25 261.00 498.07 249.80 495.21 C 230.63 490.11 218.71 471.65 199.88 465.87 C 181.67 461.46 163.27 469.93 144.96 467.00 C 138.28 466.00 132.21 462.21 128.10 456.89 C 117.06 442.76 114.99 423.49 102.90 410.06 C 89.23 396.70 68.46 395.12 53.98 382.95 C 48.88 378.69 45.61 372.45 44.80 365.88 C 42.43 347.84 50.48 329.76 46.06 311.85 C 40.47 294.41 24.38 282.95 17.91 265.94 C 15.45 259.59 15.44 252.36 17.93 246.02 C 24.41 228.99 40.55 217.52 46.09 200.03 C 50.56 181.76 42.05 163.29 45.00 144.91 C 46.10 137.49 50.70 130.97 56.83 126.79 C 69.53 117.95 85.32 114.98 98.01 106.13 C 105.54 100.95 109.91 92.59 113.44 84.41 C 118.61 73.30 122.06 60.83 130.97 51.97 C 136.69 46.17 145.09 44.21 152.99 44.34 C 166.36 44.44 179.53 48.13 192.94 47.28 C 200.89 46.89 208.21 43.20 214.59 38.67 C 226.22 30.89 236.47 20.01 250.48 16.63 M 331.15 180.12 C 327.14 182.29 324.12 185.77 320.92 188.92 C 291.95 217.89 262.99 246.88 234.00 275.83 C 218.18 260.02 202.37 244.20 186.52 228.42 C 180.03 221.86 169.93 219.25 161.06 221.76 C 153.15 223.88 146.42 229.93 143.49 237.58 C 140.46 245.22 141.33 254.27 145.77 261.20 C 147.66 264.24 150.32 266.67 152.83 269.18 C 173.84 290.18 194.84 311.20 215.86 332.20 C 223.10 339.62 235.00 341.81 244.42 337.45 C 249.12 335.49 252.64 331.71 256.14 328.16 C 291.47 292.82 326.81 257.50 362.13 222.15 C 366.52 217.87 369.46 212.10 370.09 205.98 C 371.29 196.23 366.40 186.14 358.12 180.90 C 350.16 175.76 339.38 175.39 331.15 180.12 Z" />
</g>
<g>
<path fill="#81cb68" opacity="1.00" d=" M 331.15 180.12 C 339.38 175.39 350.16 175.76 358.12 180.90 C 366.40 186.14 371.29 196.23 370.09 205.98 C 369.46 212.10 366.52 217.87 362.13 222.15 C 326.81 257.50 291.47 292.82 256.14 328.16 C 252.64 331.71 249.12 335.49 244.42 337.45 C 235.00 341.81 223.10 339.62 215.86 332.20 C 194.84 311.20 173.84 290.18 152.83 269.18 C 150.32 266.67 147.66 264.24 145.77 261.20 C 141.33 254.27 140.46 245.22 143.49 237.58 C 146.42 229.93 153.15 223.88 161.06 221.76 C 169.93 219.25 180.03 221.86 186.52 228.42 C 202.37 244.20 218.18 260.02 234.00 275.83 C 262.99 246.88 291.95 217.89 320.92 188.92 C 324.12 185.77 327.14 182.29 331.15 180.12 Z" />
</g>
</svg>
